<?xml version="1.0" standalone="no"?>
<!DOCTYPE svg PUBLIC "-//W3C//DTD SVG 20010904//EN"
 "http://www.w3.org/TR/2001/REC-SVG-20010904/DTD/svg10.dtd">
<svg version="1.0" xmlns="http://www.w3.org/2000/svg"
 width="326.000000pt" height="367.000000pt" viewBox="0 0 326.000000 367.000000"
 preserveAspectRatio="xMidYMid meet">

<g transform="translate(0.000000,367.000000) scale(0.100000,-0.100000)"
fill="#000000" stroke="none">
<path d="M1395 3626 c-712 -117 -1253 -682 -1336 -1396 -15 -136 -6 -374 20
-502 55 -268 192 -548 362 -738 37 -42 41 -44 52 -26 7 11 67 101 133 201 67
100 127 192 133 203 10 18 4 31 -34 91 -55 85 -99 186 -132 301 -31 107 -43
338 -23 458 57 357 285 659 616 813 78 37 251 89 295 89 10 0 24 12 31 27 27
56 88 62 116 13 15 -25 23 -28 93 -34 365 -30 704 -261 867 -591 81 -165 114
-305 115 -490 0 -144 -21 -264 -70 -393 -19 -52 -33 -95 -31 -96 2 -2 31 -19
65 -40 71 -42 178 -153 249 -256 l48 -71 17 23 c10 13 36 60 59 106 119 242
170 460 170 730 0 756 -523 1404 -1260 1562 -131 28 -428 37 -555 16z m465
-81 c152 -24 139 -17 128 -77 -5 -29 -11 -55 -13 -56 -2 -2 -17 -1 -34 3 -24
5 -31 12 -31 31 0 13 -4 24 -10 24 -5 0 -10 -1 -10 -2 0 -2 -9 -54 -20 -117
-17 -103 -18 -115 -4 -125 11 -9 13 -20 8 -40 -7 -28 -7 -28 -66 -22 -33 4
-65 9 -72 12 -18 7 -8 61 13 67 13 3 20 30 34 122 9 65 15 120 13 123 -9 8
-26 -9 -26 -27 0 -14 -7 -16 -36 -13 l-36 4 6 51 c9 63 12 68 39 62 12 -2 65
-12 117 -20z m-487 -106 c-5 -4 -25 -11 -45 -14 -31 -6 -38 -4 -38 9 0 19 -7
20 -49 5 -35 -12 -35 -14 -20 -58 10 -29 14 -31 41 -25 53 11 69 -50 19 -67
-29 -10 -29 -11 -17 -47 14 -41 29 -48 70 -33 21 9 25 15 20 35 -5 20 -1 25
27 35 17 6 35 11 40 11 11 0 40 -103 31 -111 -4 -3 -65 -24 -135 -47 l-128
-40 -10 25 c-12 31 -11 43 1 43 16 0 13 17 -22 132 -26 84 -37 108 -51 108
-18 0 -23 9 -29 43 -3 16 18 26 132 61 l135 43 18 -51 c9 -27 14 -53 10 -57z
m880 -9 c64 -29 117 -58 117 -64 0 -6 -9 -30 -20 -54 l-19 -42 -36 17 c-29 14
-35 22 -31 39 5 17 -1 24 -34 37 -22 8 -40 14 -40 12 0 -1 -7 -19 -15 -39 -15
-35 -15 -36 15 -51 30 -15 30 -16 15 -45 -13 -26 -18 -28 -41 -20 -35 14 -33
14 -50 -25 -18 -45 -19 -43 19 -59 29 -12 33 -12 49 7 16 21 18 21 52 4 39
-18 39 -24 1 -96 l-15 -29 -127 56 c-71 30 -129 56 -131 57 -1 1 3 16 9 34 8
23 16 30 29 26 14 -4 26 15 64 107 30 69 44 114 37 116 -14 5 -14 13 -1 47 6
15 16 25 23 22 6 -2 65 -28 130 -57z m-1251 -47 c4 -2 21 -29 38 -60 40 -75
35 -105 -26 -142 -24 -14 -44 -30 -44 -35 0 -20 42 -75 54 -70 12 4 53 -43 44
-51 -2 -2 -33 -19 -69 -39 l-66 -36 -11 26 c-7 14 -10 35 -7 47 7 29 -96 213
-118 209 -18 -3 -52 47 -40 58 4 5 48 31 98 59 85 47 112 54 147 34z m1579
-164 c48 -40 49 -41 31 -64 -9 -14 -22 -25 -27 -25 -12 0 -105 -215 -105 -241
0 -9 -9 -24 -20 -34 -18 -17 -21 -16 -60 15 -22 17 -40 35 -40 39 0 16 32 51
47 51 14 0 14 3 -2 20 -18 20 -52 29 -40 11 3 -5 -5 -21 -17 -35 l-23 -26 -45
38 c-40 35 -43 41 -31 56 8 10 27 23 41 29 42 19 209 141 204 149 -5 7 26 57
35 58 2 0 25 -18 52 -41z m-1815 -165 c143 -133 144 -138 47 -236 -40 -40 -76
-68 -88 -68 -12 0 -69 44 -138 107 -87 80 -117 113 -117 131 0 15 22 49 57 89
54 62 80 81 112 82 7 1 65 -47 127 -105z m2064 -83 c22 -33 40 -63 40 -67 0
-4 -38 -49 -85 -100 l-86 -93 98 38 c153 60 136 61 182 -11 l41 -63 -22 -18
c-12 -10 -30 -16 -41 -13 -24 6 -207 -110 -207 -131 0 -17 -28 -42 -46 -43 -6
0 -27 25 -47 54 l-37 55 29 20 c17 13 31 17 37 11 6 -6 25 0 49 17 64 42 62
43 -31 17 -109 -30 -108 -30 -124 0 -12 23 -8 30 51 102 35 43 57 74 49 69
-71 -42 -89 -56 -84 -68 4 -11 -33 -47 -49 -47 -5 0 -77 116 -77 124 0 3 12
13 26 22 21 14 27 15 34 4 12 -19 213 109 205 130 -5 13 29 49 47 50 4 0 25
-27 48 -59z m-2424 -97 c14 -10 23 -23 20 -30 -7 -19 203 -128 219 -114 13 11
65 -6 65 -20 0 -5 -57 -117 -66 -128 -1 -2 -16 4 -34 13 -25 13 -29 19 -20 30
9 11 3 18 -30 35 -23 12 -43 20 -45 18 -8 -10 -25 -48 -25 -58 0 -5 16 -18 36
-27 28 -14 37 -15 43 -5 6 10 15 9 39 -5 l31 -18 -31 -55 c-41 -73 -41 -73
-72 -59 -17 8 -25 18 -21 28 7 23 -210 138 -219 116 -5 -14 -9 -14 -36 0 -16
8 -30 18 -30 21 0 14 62 124 70 124 26 0 60 -24 55 -40 -4 -11 5 -21 30 -33
l35 -17 16 32 c17 33 17 33 -29 59 -13 7 -22 7 -32 -1 -14 -12 -65 5 -65 22 0
12 59 128 65 128 3 0 17 -7 31 -16z m2521 -503 c19 -16 30 -18 49 -10 39 14
43 11 34 -22 -8 -26 -5 -37 11 -60 l20 -29 -34 0 c-28 0 -39 -6 -55 -31 l-20
-32 -13 37 c-11 29 -19 37 -48 42 l-35 7 29 23 c24 19 29 30 27 59 -4 40 1 42
35 16z m-2567 -115 c0 -26 7 -39 28 -55 l27 -20 -32 -13 c-26 -9 -34 -20 -39
-46 l-6 -33 -27 25 c-18 17 -38 26 -60 26 l-32 0 17 29 c14 23 15 34 6 60
l-11 31 37 -6 c30 -5 41 -2 56 15 27 30 36 26 36 -13z m2644 -255 c33 15 39 9
26 -26 -9 -23 -7 -32 10 -50 27 -29 25 -35 -13 -35 -26 0 -36 -6 -52 -32 l-19
-33 -14 37 c-11 27 -22 39 -43 43 -36 8 -37 18 -4 39 19 12 25 25 25 52 l0 35
29 -20 c25 -18 33 -19 55 -10z m-2644 -120 c0 -22 8 -36 31 -52 l31 -22 -31
-13 c-17 -7 -33 -20 -36 -29 -16 -51 -14 -50 -43 -22 -20 19 -34 24 -54 20
-32 -6 -35 3 -12 36 13 18 14 28 5 47 -17 38 -14 43 21 33 27 -7 36 -5 52 11
28 27 36 25 36 -9z m2565 -241 c37 14 36 14 29 -28 -4 -28 -2 -41 10 -51 24
-20 19 -31 -11 -31 -19 0 -36 -10 -54 -32 l-26 -31 -12 35 c-9 28 -18 37 -44
42 l-32 7 28 24 c20 18 27 33 27 60 l0 36 29 -20 c24 -17 34 -19 56 -11z
m-2413 -161 l31 -26 -32 -11 c-23 -8 -33 -19 -37 -42 -8 -35 -14 -37 -39 -10
-11 12 -31 20 -52 20 -38 0 -39 2 -17 36 14 20 15 30 5 50 -17 38 -14 43 20
34 26 -8 37 -5 58 11 l26 21 3 -28 c2 -18 16 -39 34 -55z"/>
<path d="M907 3296 c-17 -13 -17 -15 0 -45 20 -34 34 -39 52 -17 10 11 9 21
-4 45 -17 35 -22 36 -48 17z"/>
<path d="M2436 3054 c-15 -10 -17 -17 -9 -25 8 -8 14 -5 23 11 6 12 10 23 8
25 -2 2 -12 -3 -22 -11z"/>
<path d="M587 3036 l-27 -34 88 -81 87 -80 32 31 32 31 -86 81 c-47 45 -89 82
-93 84 -4 1 -19 -13 -33 -32z"/>
<path d="M1545 3138 c-2 -7 -11 -49 -20 -93 -10 -44 -42 -172 -71 -285 -30
-113 -84 -349 -119 -525 -58 -283 -63 -321 -50 -334 13 -13 17 -13 29 -1 7 8
37 123 66 255 29 132 54 242 57 245 7 6 -1 -64 -38 -334 -31 -226 -30 -254 8
-230 22 14 102 520 159 1009 6 53 8 57 15 31 15 -54 68 -390 99 -631 32 -242
41 -274 75 -261 21 8 23 -10 -45 398 -28 163 -50 305 -49 315 1 45 80 -247
139 -512 17 -77 33 -148 36 -157 7 -23 54 -25 54 -2 0 33 -49 212 -130 477
-39 125 -160 611 -160 640 0 13 -51 7 -55 -5z"/>
<path d="M1652 3089 c3 -9 30 -17 76 -21 508 -51 893 -461 919 -978 6 -135
-11 -257 -57 -390 -16 -47 -31 -89 -32 -94 -2 -5 2 -10 7 -12 12 -5 54 100 81
201 15 57 19 105 18 255 0 172 -2 191 -27 275 -60 196 -142 333 -286 475 -178
175 -376 266 -640 295 -51 6 -63 5 -59 -6z"/>
<path d="M1406 3074 c-298 -64 -567 -278 -710 -562 -128 -255 -140 -593 -31
-866 26 -64 83 -173 111 -210 27 -38 28 -4 1 42 -59 98 -109 216 -133 310
-141 554 197 1121 749 1256 50 12 93 28 95 34 4 14 5 14 -82 -4z"/>
<path d="M22 2235 c0 -16 2 -22 5 -12 2 9 2 23 0 30 -3 6 -5 -1 -5 -18z"/>
<path d="M2109 2107 c-35 -19 -184 -96 -332 -171 -147 -76 -265 -142 -261
-147 3 -5 10 -6 16 -3 6 4 14 1 18 -6 6 -9 94 32 324 151 173 90 318 169 320
176 3 6 -1 16 -8 22 -10 9 -29 3 -77 -22z"/>
<path d="M1895 1930 c-158 -83 -292 -150 -297 -150 -4 0 -8 -4 -8 -9 0 -9 94
-41 119 -41 7 0 7 8 -1 25 -18 40 13 63 253 185 200 101 238 124 227 135 -2 2
-134 -63 -293 -145z"/>
<path d="M1990 1919 c-124 -65 -229 -124 -234 -132 -16 -25 3 -66 44 -92 29
-19 41 -33 46 -60 5 -27 10 -34 23 -30 9 3 120 59 246 125 127 66 238 118 247
116 14 -3 8 13 -24 73 -64 119 -66 121 -96 120 -15 -1 -128 -54 -252 -120z"/>
<path d="M957 1893 c-4 -3 -7 -14 -7 -23 0 -12 48 -31 203 -78 273 -84 534
-170 521 -171 -10 -1 -202 57 -524 159 -85 27 -164 50 -174 52 -20 3 -21 0
-81 -197 -15 -49 -33 -109 -40 -132 -13 -39 -12 -41 8 -47 12 -3 58 -6 102 -6
184 -1 467 -96 645 -216 19 -13 38 -24 42 -24 6 0 22 52 23 74 0 5 -34 19 -75
31 -347 105 -442 139 -451 162 -9 24 38 201 61 228 21 25 57 18 282 -54 119
-38 231 -72 247 -76 46 -10 38 11 -11 29 -25 9 -30 13 -13 9 105 -23 125 10
25 44 -54 18 -710 224 -761 239 -8 2 -18 1 -22 -3z"/>
<path d="M2350 1815 c0 -12 24 -55 31 -55 11 0 22 38 14 50 -6 10 -45 15 -45
5z"/>
<path d="M2200 1739 c-255 -134 -346 -179 -363 -179 -20 0 -22 -11 -5 -28 8
-8 17 -7 37 7 88 62 302 147 431 172 36 6 67 13 69 15 5 4 -39 74 -47 74 -4 0
-59 -28 -122 -61z"/>
<path d="M2291 1695 c-189 -42 -444 -163 -448 -214 l-2 -22 42 25 c139 86 308
154 440 177 54 9 67 15 65 28 -4 21 -21 22 -97 6z"/>
<path d="M1226 1652 c-19 -37 -41 -145 -33 -164 6 -17 30 -26 322 -114 105
-32 198 -64 207 -72 15 -12 18 -13 23 -1 3 8 18 53 34 101 28 83 29 89 13 107
-18 22 -478 171 -526 171 -18 0 -30 -8 -40 -28z"/>
<path d="M2325 1644 c-38 -7 -104 -25 -145 -40 -41 -14 -81 -28 -87 -30 -9 -2
9 -46 52 -127 66 -127 78 -174 55 -218 -14 -25 -62 -49 -97 -49 -56 0 -85 31
-151 159 -35 66 -65 121 -68 121 -3 0 -16 -7 -29 -16 -18 -12 -33 -44 -60
-127 -38 -119 -52 -142 -91 -151 -27 -7 -28 -15 -14 -83 5 -26 12 -59 14 -73
7 -42 36 -184 42 -202 3 -11 16 -18 32 -19 l27 -1 -30 -13 -30 -13 25 -10 c14
-5 32 -12 40 -15 8 -3 0 -6 -18 -6 -33 -1 -33 -2 -27 -38 26 -164 122 -320
225 -366 87 -40 253 -16 497 71 188 68 324 143 416 231 58 55 77 88 77 135 0
56 -8 66 -52 66 -56 0 -93 23 -131 83 -104 162 -294 233 -475 178 -123 -37
-241 -132 -283 -227 -38 -85 -42 -232 -10 -317 6 -16 11 -38 11 -50 0 -46 -30
9 -46 83 -37 174 2 307 120 418 135 126 316 170 466 115 52 -19 80 -35 133
-76 21 -16 40 -27 43 -25 4 5 -58 117 -93 166 -8 12 -11 22 -5 22 14 0 61 -57
80 -97 17 -36 23 -38 53 -23 25 14 24 3 -1 -18 -18 -15 -19 -21 -9 -50 10 -29
15 -33 38 -28 24 6 25 5 8 -8 -17 -13 -17 -19 -8 -49 17 -50 44 -70 96 -71 64
-1 79 17 83 108 3 59 0 83 -17 122 -33 74 -143 232 -208 298 -74 76 -118 104
-211 136 -71 24 -80 30 -115 80 -21 30 -41 56 -45 57 -4 0 -38 -5 -77 -13z
m439 -931 c-39 -67 -119 -143 -190 -178 -56 -29 -65 -30 -179 -29 -144 1 -214
19 -270 68 -31 26 -37 37 -28 46 15 16 62 0 146 -50 36 -22 76 -40 89 -40 40
0 213 47 259 70 66 33 141 93 169 133 35 51 37 38 4 -20z"/>
<path d="M2038 1549 c-16 -9 -12 -21 42 -129 64 -127 70 -153 43 -169 -31 -17
-52 7 -113 130 -55 109 -62 119 -80 109 -11 -6 -20 -15 -20 -21 0 -18 101
-209 127 -240 33 -39 92 -41 128 -4 41 40 34 80 -37 216 -35 65 -65 119 -68
119 -3 -1 -13 -5 -22 -11z"/>
<path d="M830 1420 c0 -18 7 -20 83 -20 213 0 445 -70 634 -192 37 -24 73 -47
79 -51 7 -4 14 1 17 12 4 15 -8 28 -48 55 -75 49 -217 119 -307 150 -97 33
-288 66 -384 66 -67 0 -74 -2 -74 -20z"/>
<path d="M719 1244 c-231 -324 -313 -482 -326 -631 -11 -132 24 -197 151 -282
354 -236 771 -343 878 -225 24 28 26 55 4 68 -14 8 -20 8 -23 -1 -3 -7 -9 -13
-14 -13 -6 0 -6 8 1 19 10 21 -5 71 -21 71 -5 0 -4 12 1 26 15 38 13 44 -14
44 -14 0 -27 4 -30 8 -3 5 8 6 24 4 31 -4 57 24 62 68 3 22 -1 25 -25 23 -15
-1 -25 2 -22 8 4 5 19 9 35 9 25 0 30 6 45 49 9 28 18 69 20 92 5 49 11 57 27
41 9 -9 8 -27 -6 -80 -15 -56 -15 -68 -4 -75 10 -7 6 -17 -20 -45 -32 -33 -33
-37 -16 -49 17 -12 17 -13 -3 -13 -26 0 -56 -68 -47 -105 8 -31 58 -75 85 -75
48 0 102 46 138 117 33 66 71 237 78 348 7 125 -6 193 -54 290 l-37 75 13 63
c13 62 13 62 -14 82 -54 41 -213 127 -290 156 -107 42 -236 68 -375 75 l-115
7 -106 -149z m39 -191 c-136 -283 -142 -301 -136 -422 4 -82 9 -105 36 -156
32 -63 98 -137 145 -161 36 -19 34 -25 -5 -17 -98 19 -199 94 -218 162 -5 20
-10 64 -10 99 0 59 -2 64 -30 80 -41 23 -39 59 9 153 42 84 303 490 309 484 3
-2 -43 -102 -100 -222z"/>
<path d="M1690 1256 c-5 -15 -10 -29 -10 -32 0 -10 29 -2 40 12 11 12 10 18
-3 31 -15 15 -17 14 -27 -11z"/>
<path d="M425 849 c-4 -6 -5 -12 -2 -15 2 -3 7 2 10 11 7 17 1 20 -8 4z"/>
<path d="M2585 385 c-16 -8 -23 -14 -15 -14 8 0 26 6 40 14 32 18 15 18 -25 0z"/>
</g>
</svg>
